<mxfile host="65bd71144e">
    <diagram id="kskPi5N7-bfQdzeNheZj" name="Page-1">
        <mxGraphModel dx="815" dy="938" grid="0" gridSize="10" guides="1" tooltips="1" connect="1" arrows="1" fold="1" page="0" pageScale="1" pageWidth="850" pageHeight="1100" math="0" shadow="0">
            <root>
                <mxCell id="0"/>
                <mxCell id="1" parent="0"/>
                <mxCell id="3" value="Store Manager" style="shape=umlLifeline;perimeter=lifelinePerimeter;whiteSpace=wrap;container=1;dropTarget=0;collapsible=0;recursiveResize=0;outlineConnect=0;portConstraint=eastwest;newEdgeStyle={&quot;edgeStyle&quot;:&quot;elbowEdgeStyle&quot;,&quot;elbow&quot;:&quot;vertical&quot;,&quot;curved&quot;:0,&quot;rounded&quot;:0};size=65;" vertex="1" parent="1">
                    <mxGeometry x="20" y="40" width="150" height="685" as="geometry"/>
                </mxCell>
                <mxCell id="4" value="System" style="shape=umlLifeline;perimeter=lifelinePerimeter;whiteSpace=wrap;container=1;dropTarget=0;collapsible=0;recursiveResize=0;outlineConnect=0;portConstraint=eastwest;newEdgeStyle={&quot;edgeStyle&quot;:&quot;elbowEdgeStyle&quot;,&quot;elbow&quot;:&quot;vertical&quot;,&quot;curved&quot;:0,&quot;rounded&quot;:0};size=65;" vertex="1" parent="1">
                    <mxGeometry x="269" y="40" width="150" height="685" as="geometry"/>
                </mxCell>
                <mxCell id="5" value="Warehouse Manager" style="shape=umlLifeline;perimeter=lifelinePerimeter;whiteSpace=wrap;container=1;dropTarget=0;collapsible=0;recursiveResize=0;outlineConnect=0;portConstraint=eastwest;newEdgeStyle={&quot;edgeStyle&quot;:&quot;elbowEdgeStyle&quot;,&quot;elbow&quot;:&quot;vertical&quot;,&quot;curved&quot;:0,&quot;rounded&quot;:0};size=65;" vertex="1" parent="1">
                    <mxGeometry x="474" y="40" width="167" height="685" as="geometry"/>
                </mxCell>
                <mxCell id="6" value="Supplier" style="shape=umlLifeline;perimeter=lifelinePerimeter;whiteSpace=wrap;container=1;dropTarget=0;collapsible=0;recursiveResize=0;outlineConnect=0;portConstraint=eastwest;newEdgeStyle={&quot;edgeStyle&quot;:&quot;elbowEdgeStyle&quot;,&quot;elbow&quot;:&quot;vertical&quot;,&quot;curved&quot;:0,&quot;rounded&quot;:0};size=65;" vertex="1" parent="1">
                    <mxGeometry x="691" y="40" width="150" height="685" as="geometry"/>
                </mxCell>
                <mxCell id="7" value="Create Purchase Order" style="verticalAlign=bottom;edgeStyle=elbowEdgeStyle;elbow=vertical;curved=0;rounded=0;endArrow=block;" edge="1" parent="1" source="3" target="4">
                    <mxGeometry relative="1" as="geometry">
                        <Array as="points">
                            <mxPoint x="228" y="147"/>
                        </Array>
                    </mxGeometry>
                </mxCell>
                <mxCell id="8" value="Validate Stock Levels" style="curved=1;endArrow=block;rounded=0;" edge="1" parent="1" source="4" target="4">
                    <mxGeometry relative="1" as="geometry">
                        <Array as="points">
                            <mxPoint x="395" y="199"/>
                            <mxPoint x="395" y="229"/>
                        </Array>
                    </mxGeometry>
                </mxCell>
                <mxCell id="9" value="Send PO" style="verticalAlign=bottom;edgeStyle=elbowEdgeStyle;elbow=vertical;curved=0;rounded=0;endArrow=block;" edge="1" parent="1" source="4" target="6">
                    <mxGeometry relative="1" as="geometry">
                        <Array as="points">
                            <mxPoint x="563" y="281"/>
                        </Array>
                    </mxGeometry>
                </mxCell>
                <mxCell id="10" value="Confirm PO" style="verticalAlign=bottom;edgeStyle=elbowEdgeStyle;elbow=vertical;curved=0;rounded=0;dashed=1;dashPattern=2 3;endArrow=block;" edge="1" parent="1" source="6" target="4">
                    <mxGeometry relative="1" as="geometry">
                        <Array as="points">
                            <mxPoint x="566" y="333"/>
                        </Array>
                    </mxGeometry>
                </mxCell>
                <mxCell id="11" value="Deliver Items" style="verticalAlign=bottom;edgeStyle=elbowEdgeStyle;elbow=vertical;curved=0;rounded=0;endArrow=block;" edge="1" parent="1" source="6" target="5">
                    <mxGeometry relative="1" as="geometry">
                        <Array as="points">
                            <mxPoint x="673" y="434"/>
                        </Array>
                    </mxGeometry>
                </mxCell>
                <mxCell id="12" value="Scan Received Items" style="verticalAlign=bottom;edgeStyle=elbowEdgeStyle;elbow=vertical;curved=0;rounded=0;endArrow=block;" edge="1" parent="1" source="5" target="4">
                    <mxGeometry relative="1" as="geometry">
                        <Array as="points">
                            <mxPoint x="462" y="486"/>
                        </Array>
                    </mxGeometry>
                </mxCell>
                <mxCell id="13" value="Update Inventory" style="curved=1;endArrow=block;rounded=0;" edge="1" parent="1" source="4" target="4">
                    <mxGeometry relative="1" as="geometry">
                        <Array as="points">
                            <mxPoint x="395" y="538"/>
                            <mxPoint x="395" y="568"/>
                        </Array>
                    </mxGeometry>
                </mxCell>
                <mxCell id="14" value="Send Receipt Notification" style="verticalAlign=bottom;edgeStyle=elbowEdgeStyle;elbow=vertical;curved=0;rounded=0;dashed=1;dashPattern=2 3;endArrow=block;" edge="1" parent="1" source="4" target="3">
                    <mxGeometry relative="1" as="geometry">
                        <Array as="points">
                            <mxPoint x="231" y="620"/>
                        </Array>
                    </mxGeometry>
                </mxCell>
                <mxCell id="15" value="Shipping Process" style="fillColor=#ffff88;strokeColor=#9E916F;" vertex="1" parent="1">
                    <mxGeometry x="319" y="353" width="472" height="49" as="geometry"/>
                </mxCell>
            </root>
        </mxGraphModel>
    </diagram>
</mxfile>